<svg fill="none" height="48" viewBox="0 0 48 48" width="48" xmlns="http://www.w3.org/2000/svg"><path d="m0 0h48v48h-48z" fill="#fff" fill-opacity=".01"/><path d="m44 44-40-40v40z" stroke="#000" stroke-linecap="round" stroke-linejoin="round" stroke-width="4"/><path clip-rule="evenodd" d="m13 35h12l-12-12z" fill="#2f88ff" fill-rule="evenodd"/><path clip-rule="evenodd" d="m13 35h12l-12-12z" fill="#2f88ff" fill-rule="evenodd"/><path clip-rule="evenodd" d="m13 35h12l-12-12z" fill="#2f88ff" fill-rule="evenodd"/><path clip-rule="evenodd" d="m13 35h12l-12-12z" fill="#2f88ff" fill-rule="evenodd"/><g stroke="#000" stroke-linecap="round" stroke-linejoin="round" stroke-width="4"><path clip-rule="evenodd" d="m13 35h12l-12-12z" fill-rule="evenodd"/><path clip-rule="evenodd" d="m13 35h12l-12-12z" fill-rule="evenodd"/><path clip-rule="evenodd" d="m13 35h12l-12-12z" fill-rule="evenodd"/><path clip-rule="evenodd" d="m13 35h12l-12-12z" fill-rule="evenodd"/><path d="m30 44v-3"/><path d="m24 44v-3"/><path d="m18 44v-3"/><path d="m12 44v-3"/><path d="m4 36h3"/><path d="m4 30h3"/><path d="m4 24h3"/><path d="m4 18h3"/></g></svg>